<?xml version="1.0" encoding="UTF-8"?>
<svg width="512px" height="512px" viewBox="0 0 512 512" version="1.1" xmlns="http://www.w3.org/2000/svg" xmlns:xlink="http://www.w3.org/1999/xlink">
    <!-- Generator: Sketch 51.2 (57519) - http://www.bohemiancoding.com/sketch -->
    <title>sa_512</title>
    <desc>Created with Sketch.</desc>
    <defs>
        <path d="M168.520229,130.18655 C168.520229,139.808527 166.491843,148.491645 162.43501,156.236163 C158.378177,163.980681 153.568005,167.852882 148.004349,167.852882 C151.249815,161.281776 152.872524,154.006731 152.872524,146.027531 C152.872524,140.395154 151.539584,135.17355 148.873666,130.362561 C146.207747,125.551572 141.629391,123.146114 135.138458,123.146114 C130.03844,123.146114 125.518037,125.316894 121.577114,129.658517 C117.636191,134.000141 115.665759,140.981837 115.665759,150.603814 C115.665759,165.388803 117.288468,179.469534 120.533934,192.84643 C123.7794,206.223325 127.372541,219.248001 131.313464,231.920849 C171.418152,207.044518 206.770021,194.37186 237.37013,193.902495 C206.306383,201.881696 172.345407,219.013252 135.486185,245.297677 C138.499832,255.389019 141.281619,265.597549 143.831628,275.923573 C146.613456,288.361739 148.004349,301.269076 148.004349,314.645971 C148.004349,347.736185 138.963543,374.196225 120.881661,394.026886 C102.799778,413.857546 81.1250258,423.772727 55.8567538,423.772727 C42.1794323,423.538045 31.4000102,419.313826 23.5181639,411.099943 C15.6363176,403.824789 11.463638,392.677544 11,377.657872 C11,345.74107 27.2270872,313.824746 59.6817484,281.907944 C58.5226533,277.683661 57.2476679,273.459442 55.8567538,269.235159 C51.4521927,255.388899 47.5113287,241.249499 44.0340435,226.816533 C40.5567584,212.383567 38.8181419,197.54013 38.8181419,182.285776 C38.8181419,160.460315 42.8169598,142.683392 50.8147156,128.954474 C58.8124714,115.225555 68.896447,105.134365 81.066945,98.6805994 C93.2374429,92.2268342 105.349804,89 117.404393,89 C131.081714,89 143.020214,92.5788525 153.220251,99.7366648 C163.420287,106.894477 168.520229,117.044337 168.520229,130.18655 Z M51.1537868,388.701299 C58.3301546,388.701299 64.0595881,383.476738 68.3422592,373.027461 C72.6249303,362.578184 74.7662338,352.583373 74.7662338,343.042728 C74.7662338,328.504603 72.6828034,313.966696 68.5158802,299.428571 C49.3017341,324.415974 39.6948052,346.222834 39.6948052,364.849807 C40.1577967,380.750881 43.977419,388.701299 51.1537868,388.701299 Z M405.394156,324.404907 C405.394156,328.174939 405.855828,331.827102 406.779186,335.361507 C407.702544,338.895912 410.010904,340.663087 413.704336,340.663087 C417.859447,340.663087 422.88013,337.364359 428.766537,330.766804 C434.652945,324.169248 440.943226,315.686804 447.637572,305.319217 C459.179546,286.469058 470.02884,266.382159 480.185777,245.057917 C490.342715,223.733675 497.61405,207.416751 502,196.106655 C502,201.99733 497.960369,216.782702 489.880987,240.463213 C481.801605,264.143725 470.952312,289.296529 457.332782,315.922378 C449.484239,331.238132 441.001015,345.316633 431.882855,358.158304 C422.764695,370.999974 413.242709,381.426312 403.316611,389.437629 C393.390513,397.448947 383.349145,401.454545 373.192208,401.454545 C358.880159,401.454545 347.915448,397.9791 340.297745,391.028104 C332.680042,384.077108 327.486231,375.771381 324.716157,366.110675 C321.946083,356.449968 320.561067,347.496277 320.561067,339.249333 C320.561067,324.404833 322.176919,307.086509 325.408672,287.293842 C319.406845,303.787731 312.250928,319.810126 303.940707,335.361507 C293.552929,355.389801 281.780292,371.76563 268.622441,384.489487 C257.311306,395.799583 245.42325,401.454545 232.957918,401.454545 C223.955178,401.454545 216.337589,399.922993 210.104922,396.859842 C203.872256,393.796691 198.793864,389.908905 194.869592,385.196365 C189.098605,377.891928 185.174392,369.939637 183.096837,361.339252 C181.019282,352.738867 179.980519,345.375634 179.980519,339.249333 C179.980519,330.766761 180.961573,318.39653 182.923708,302.138268 C184.885844,285.880006 187.944421,267.854812 192.099532,248.062146 C197.40884,222.378804 204.564757,197.402719 213.567498,173.133139 C221.41604,152.162338 230.880317,134.608391 241.960613,120.470772 C247.96244,112.695081 254.483558,106.568872 261.524162,102.091959 C268.564767,97.6150461 276.124647,95.3766234 284.204029,95.3766234 C299.208596,95.3766234 313.52043,99.0876927 327.13996,106.509943 C340.75949,113.932193 352.647545,123.533848 362.804483,135.315198 C363.035322,134.37269 363.496994,132.782231 364.189513,130.543775 C364.882031,128.305319 365.689957,125.890178 366.613315,123.298281 C370.306747,112.695067 377.462664,105.39074 388.081281,101.385081 C398.699897,97.3794227 410.587953,95.3766234 423.745804,95.3766234 C431.363507,95.3766234 438.17317,96.3191172 444.174997,98.204133 C450.176823,100.089149 454.793544,102.91663 458.025297,106.686662 C454.101025,117.76113 449.715141,131.073855 444.867512,146.625236 C438.634845,166.182276 432.402272,187.152763 426.169606,209.537326 C419.7061,232.864398 414.51229,255.248626 410.588018,276.690681 C407.125426,295.305213 405.394156,311.209796 405.394156,324.404907 Z M352.149351,153.92611 C341.553797,138.273993 331.634704,130.448052 322.391775,130.448052 C314.726906,130.448052 307.625738,137.238207 301.088056,150.81872 C292.972313,167.161372 286.096578,187.531836 280.460645,211.930725 C276.177337,228.733733 272.683111,245.07614 269.977863,260.958435 C265.24368,290.8816 262.876623,309.525754 262.876623,316.891456 C262.876623,321.034664 263.327491,325.005178 264.22924,328.803118 C265.13099,332.601058 267.272612,334.5 270.654172,334.5 C274.93748,334.5 280.009744,329.954049 285.871114,320.86201 C291.732484,311.769972 297.8192,300.088604 304.131444,285.817556 C313.148937,265.101518 321.715426,243.465093 329.831169,220.90763 C340.877597,189.373217 348.316916,167.046267 352.149351,153.92611 Z" id="path-1"></path>
        <filter x="-1.4%" y="-1.5%" width="102.9%" height="104.2%" filterUnits="objectBoundingBox" id="filter-2">
            <feOffset dx="0" dy="2" in="SourceAlpha" result="shadowOffsetOuter1"></feOffset>
            <feGaussianBlur stdDeviation="2" in="shadowOffsetOuter1" result="shadowBlurOuter1"></feGaussianBlur>
            <feColorMatrix values="0 0 0 0 1   0 0 0 0 1   0 0 0 0 1  0 0 0 1 0" type="matrix" in="shadowBlurOuter1"></feColorMatrix>
        </filter>
    </defs>
    <g id="sa_512" stroke="none" stroke-width="1" fill="none" fill-rule="evenodd">
        <g id="sa">
            <use fill="black" fill-opacity="1" filter="url(#filter-2)" xlink:href="#path-1"></use>
            <use fill="#610F80" fill-rule="evenodd" xlink:href="#path-1"></use>
        </g>
    </g>
</svg>