<?xml version="1.0" standalone="no"?>
<!DOCTYPE svg PUBLIC "-//W3C//DTD SVG 20010904//EN"
 "http://www.w3.org/TR/2001/REC-SVG-20010904/DTD/svg10.dtd">
<svg version="1.0" xmlns="http://www.w3.org/2000/svg"
 width="512.000000pt" height="512.000000pt" viewBox="0 0 512.000000 512.000000"
 preserveAspectRatio="xMidYMid meet">
<metadata>
Created by potrace 1.11, written by Peter Selinger 2001-2013
</metadata>
<g transform="translate(0.000000,512.000000) scale(0.100000,-0.100000)"
fill="#000000" stroke="none">
<path d="M1025 4215 c-181 -40 -369 -161 -461 -298 -16 -23 -31 -44 -34 -47
-3 -3 -17 -27 -32 -55 -15 -27 -33 -49 -39 -47 -10 2 -10 0 0 -11 9 -12 9 -18
-1 -28 -7 -8 -14 -22 -16 -33 -2 -10 -8 -30 -14 -45 -6 -14 -12 -38 -13 -54
-2 -15 -9 -35 -16 -44 -10 -12 -10 -14 -1 -9 6 4 12 3 12 -3 0 -5 -4 -12 -9
-16 -5 -3 -8 -17 -5 -31 3 -14 1 -23 -4 -20 -4 2 -6 -18 -4 -46 2 -35 -1 -54
-10 -59 -11 -7 -11 -9 0 -9 8 0 10 -5 6 -12 -11 -18 -12 -48 -2 -54 4 -3 3
-14 -3 -26 -6 -11 -7 -18 -2 -15 5 3 9 -14 10 -39 1 -28 -3 -44 -10 -44 -8 0
-7 -3 2 -9 9 -6 12 -22 8 -50 -2 -22 -1 -38 4 -36 4 3 7 -3 7 -12 -1 -10 2
-29 6 -42 6 -18 5 -22 -5 -16 -8 5 -5 -2 6 -15 19 -22 19 -23 1 -16 -16 6 -17
4 -5 -10 18 -22 24 -68 8 -58 -8 4 -9 3 -5 -5 4 -6 12 -8 18 -5 7 5 9 1 5 -9
-3 -9 -2 -19 4 -22 5 -4 7 -10 4 -15 -3 -5 -1 -11 5 -15 5 -3 10 -11 10 -17 0
-6 -7 -5 -17 3 -17 13 -17 13 0 -7 9 -11 14 -24 10 -27 -3 -4 -1 -7 5 -7 7 0
12 -5 12 -11 0 -5 -6 -7 -12 -3 -7 4 -4 -2 6 -14 11 -12 16 -25 13 -29 -4 -3
-2 -12 4 -20 6 -7 8 -13 4 -13 -4 0 -1 -8 6 -17 12 -15 12 -16 -6 -10 -17 6
-18 5 -4 -5 20 -16 44 -82 26 -72 -7 4 -3 -2 7 -14 11 -12 14 -22 8 -22 -7 0
-12 -5 -12 -10 0 -6 5 -9 11 -8 12 3 32 -50 24 -63 -3 -4 -1 -9 5 -11 5 -1 10
-18 12 -35 1 -18 6 -33 10 -33 4 0 8 -13 8 -29 0 -16 6 -31 13 -34 9 -3 8 -8
-3 -22 -13 -17 -13 -18 0 -11 8 5 -10 -17 -40 -49 -30 -32 -59 -64 -65 -70 -5
-7 -22 -26 -37 -43 -43 -49 -138 -180 -138 -191 0 -5 -4 -11 -8 -13 -15 -6
-129 -235 -138 -278 -15 -69 -30 -127 -35 -135 -3 -5 -5 -22 -4 -37 1 -16 -1
-28 -5 -28 -4 0 -6 -16 -3 -35 2 -24 -1 -35 -9 -35 -8 0 -9 -3 -3 -8 13 -10
16 -94 3 -86 -6 4 -3 -5 6 -19 13 -20 14 -26 4 -30 -11 -4 -11 -6 0 -6 7 -1
10 -5 7 -11 -3 -5 -1 -10 6 -10 8 0 7 -5 -2 -17 -8 -9 -9 -14 -3 -10 7 4 15 0
18 -9 3 -8 2 -12 -3 -9 -5 3 -13 1 -16 -5 -4 -6 -1 -9 7 -8 7 2 13 -5 13 -14
0 -9 4 -20 9 -25 5 -5 6 -2 1 6 -5 9 -4 12 3 7 6 -4 9 -13 5 -21 -3 -8 0 -15
6 -15 6 0 11 -7 11 -16 0 -20 25 -45 36 -36 5 4 2 -1 -6 -11 -7 -10 -9 -17 -4
-16 19 3 34 -1 34 -12 0 -5 -6 -7 -12 -3 -9 5 -9 3 1 -9 7 -9 17 -15 21 -12
10 6 51 -30 43 -38 -3 -4 4 -5 16 -2 20 4 47 -25 35 -38 -9 -8 19 -3 35 7 10
7 12 3 6 -15 -7 -22 -7 -23 11 -5 11 12 19 15 22 7 2 -6 9 -8 15 -4 7 4 8 0 3
-12 -6 -18 -6 -18 15 1 l22 19 -7 -25 c-5 -16 -4 -20 2 -12 10 15 65 24 56 10
-3 -5 -13 -7 -21 -4 -8 3 -12 2 -9 -3 6 -9 83 -7 92 2 4 3 17 2 31 -4 16 -6
22 -6 18 1 -7 11 5 14 48 11 20 -1 26 2 21 11 -4 7 2 5 14 -6 20 -17 22 -17
28 -2 3 9 13 16 21 16 8 0 11 -5 7 -12 -4 -7 -3 -8 4 -4 7 4 12 15 12 24 0 15
2 15 10 2 9 -13 14 -7 11 12 0 4 10 3 24 -2 16 -6 25 -6 25 0 0 6 7 10 16 10
8 0 12 5 8 11 -4 7 0 9 14 5 11 -4 23 -2 27 4 4 7 19 9 34 6 14 -3 20 -3 14 0
-21 9 -15 26 6 19 11 -3 22 -1 26 5 3 6 11 7 17 4 7 -5 8 -2 3 5 -5 9 -10 10
-18 2 -14 -14 -27 -14 -27 0 0 5 4 8 8 5 5 -3 32 13 61 35 29 22 50 36 47 30
-4 -5 -2 -12 4 -16 5 -3 10 1 10 10 0 10 5 13 13 9 8 -5 7 -2 -2 9 -12 15 -12
17 4 11 14 -6 16 -4 10 6 -6 10 -4 12 9 7 11 -5 15 -3 10 5 -5 8 -2 9 11 4 16
-6 16 -4 4 11 -8 9 -9 14 -2 10 6 -4 14 -1 16 5 4 10 8 9 16 -2 6 -8 11 -10
11 -4 0 5 -6 16 -12 23 -11 11 -9 13 10 8 20 -5 22 -3 10 11 -11 13 -11 15 4
9 13 -4 15 -2 11 10 -4 11 -2 14 5 9 7 -4 12 -1 12 9 0 11 5 15 14 12 10 -4
14 0 11 13 -2 11 5 26 16 33 10 8 16 17 11 22 -4 4 0 6 9 2 13 -4 16 -1 11 15
-4 17 -2 20 11 15 9 -3 16 -3 15 1 -1 4 4 18 11 32 l12 25 -21 -25 -22 -25 18
32 c10 18 21 30 25 27 4 -2 6 4 5 13 -3 21 15 43 29 35 6 -3 3 3 -5 13 -14 17
-13 18 4 12 16 -6 17 -5 6 8 -10 12 -10 15 0 15 7 0 10 7 6 15 -3 10 1 15 12
15 14 0 15 2 2 10 -13 8 -13 11 -1 22 11 11 13 11 6 -1 -6 -10 -4 -12 4 -7 9
6 9 11 0 22 -9 11 -8 14 7 14 16 0 17 2 4 10 -13 9 -13 11 0 20 8 5 11 10 5
10 -5 0 -1 8 10 17 18 14 18 15 2 9 -13 -4 -17 -2 -14 6 2 7 11 12 18 10 11
-3 12 -1 2 9 -15 15 -17 33 -3 24 5 -3 8 7 5 25 -2 16 1 30 6 30 6 0 7 5 4 10
-4 6 -1 18 7 27 9 12 9 15 0 9 -13 -8 -13 19 1 42 5 6 4 12 -2 12 -7 0 -7 9
-3 23 5 12 8 54 7 94 -1 45 2 70 8 66 6 -4 7 -1 1 8 -4 8 -9 24 -10 37 0 12
-4 25 -7 28 -4 4 -2 15 4 25 5 11 6 19 1 19 -5 0 -9 22 -8 49 1 27 -3 47 -7
44 -4 -2 -6 11 -4 31 2 19 1 33 -3 31 -4 -2 -8 8 -9 23 -3 40 -7 65 -15 84 -4
9 -8 22 -10 30 -1 7 -5 19 -9 26 -5 7 -3 12 5 12 10 0 10 2 -1 9 -7 5 -13 20
-13 35 0 14 -5 26 -10 26 -6 0 -8 7 -5 15 4 8 1 17 -4 21 -6 3 -9 15 -6 25 3
10 1 22 -4 25 -14 8 -7 61 8 61 10 0 10 -4 0 -16 -11 -14 -10 -14 6 -2 10 8
16 20 13 27 -3 8 -2 13 2 13 24 -4 42 3 42 15 0 8 5 18 12 22 6 4 8 3 5 -2 -3
-6 -2 -16 4 -24 7 -12 9 -11 10 5 1 11 1 23 0 27 -1 8 20 5 39 -6 8 -5 12 -5
7 -1 -4 5 1 18 10 29 18 21 18 21 -4 2 -13 -11 -23 -15 -23 -10 0 14 33 31 53
28 10 -1 14 2 10 9 -4 7 0 8 12 3 16 -6 16 -4 4 11 -7 10 -9 15 -5 11 5 -4 16
-2 24 5 9 6 13 7 9 1 -3 -6 0 -11 7 -11 8 0 12 6 9 13 -2 6 0 15 6 19 6 3 11
1 11 -4 0 -6 5 -11 11 -11 5 0 7 5 4 10 -3 6 1 10 9 10 8 0 18 4 21 10 4 6 -1
7 -12 4 -15 -5 -15 -4 -3 4 10 8 18 8 27 0 8 -6 16 -8 20 -4 3 3 1 6 -5 6 -7
0 -12 5 -12 11 0 5 5 7 10 4 6 -3 10 -1 10 5 0 6 5 8 10 5 6 -3 10 -1 10 4 0
6 9 11 21 11 14 0 19 5 16 13 -3 8 1 14 9 14 7 0 11 -3 9 -7 -2 -4 2 -7 10 -7
7 0 12 8 10 19 -3 15 -1 16 16 8 15 -8 19 -7 19 4 0 8 5 18 12 22 6 4 8 3 4
-4 -3 -6 -2 -13 4 -17 5 -3 10 1 10 10 0 12 6 15 23 10 21 -7 21 -6 3 8 -18
14 -18 14 5 13 13 -1 30 -5 37 -10 8 -5 11 -3 10 5 -2 7 2 13 9 14 6 0 14 3
18 7 9 9 -16 5 -32 -5 -8 -5 -13 -4 -13 2 0 10 15 15 23 9 2 -2 11 3 19 10 13
10 15 9 13 -10 -1 -13 -3 -23 -5 -23 -1 0 -3 -9 -4 -20 -6 -46 -30 -136 -37
-141 -5 -2 -5 -12 -2 -21 5 -12 3 -14 -7 -8 -9 5 -11 4 -6 -3 9 -15 -15 -132
-26 -126 -4 3 -5 -2 -2 -10 3 -8 2 -21 -2 -28 -5 -7 -7 -25 -5 -40 1 -16 -1
-28 -6 -28 -4 0 -9 -12 -9 -27 -2 -31 -9 -81 -20 -128 -4 -16 -6 -38 -6 -48 0
-9 -2 -15 -6 -13 -4 2 -8 -10 -9 -27 -2 -62 -8 -107 -13 -107 -6 0 -8 -18 -11
-87 -1 -21 -7 -41 -13 -45 -7 -5 -7 -8 -1 -8 6 0 9 -19 7 -45 -2 -25 -8 -42
-13 -39 -5 3 -6 10 -3 16 4 7 2 8 -5 4 -9 -6 -9 -11 -1 -21 11 -13 11 -107 0
-100 -4 2 -7 -2 -7 -10 0 -8 5 -15 10 -15 6 0 6 -5 0 -12 -6 -7 -8 -26 -6 -41
3 -21 0 -27 -8 -21 -8 5 -9 3 -4 -7 5 -7 10 -27 12 -44 2 -24 1 -27 -8 -15 -9
12 -9 11 -4 -5 5 -11 9 -32 10 -47 2 -14 6 -31 10 -37 3 -6 1 -11 -4 -11 -7 0
-7 -7 1 -20 11 -17 10 -22 -2 -30 -13 -8 -12 -10 3 -10 9 0 17 -5 17 -11 0 -5
-6 -7 -12 -3 -10 6 -10 5 -1 -8 7 -8 10 -18 6 -21 -3 -4 -1 -7 7 -7 9 0 10 -3
1 -14 -9 -10 -8 -15 4 -19 8 -4 12 -13 9 -22 -3 -8 -1 -15 6 -15 6 0 9 -4 5
-9 -3 -5 -1 -12 5 -16 6 -4 8 -11 5 -16 -4 -5 -1 -9 4 -9 6 0 11 -5 11 -11 0
-5 -4 -7 -10 -4 -5 3 -10 1 -10 -4 0 -6 7 -11 16 -11 8 0 13 -4 10 -9 -3 -5 1
-12 10 -15 9 -4 14 -13 10 -21 -3 -9 0 -15 8 -15 8 0 17 -7 20 -16 10 -26 6
-30 -9 -10 -8 11 -15 15 -15 10 0 -17 22 -33 38 -27 9 4 13 2 9 -4 -4 -6 1
-19 11 -30 9 -10 15 -14 12 -8 -3 6 2 3 11 -7 9 -9 19 -15 21 -13 2 3 18 -10
34 -28 24 -26 24 -28 3 -9 -14 12 -29 19 -34 15 -4 -5 -5 -2 0 6 5 10 4 12 -4
7 -6 -4 -9 -12 -5 -17 3 -5 9 -7 13 -4 5 2 16 -4 26 -15 13 -15 21 -17 31 -9
9 8 17 3 29 -18 9 -15 14 -20 11 -11 -3 12 -1 15 9 11 8 -3 12 -10 8 -17 -4
-6 2 -4 12 4 11 9 16 10 11 3 -7 -13 -4 -14 55 -18 9 0 24 -7 33 -14 9 -8 16
-9 16 -3 0 5 10 8 22 4 14 -3 19 -2 14 6 -11 18 0 14 15 -5 12 -14 12 -16 0
-8 -8 5 -12 4 -8 -1 7 -12 54 -11 64 1 5 4 2 5 -4 1 -9 -5 -11 -2 -6 10 5 14
8 13 19 -7 l13 -24 1 25 c1 23 2 23 10 5 5 -11 9 -15 9 -8 1 7 8 10 18 6 12
-5 14 -3 8 8 -4 8 -5 11 0 7 4 -4 17 -2 29 4 19 10 20 10 7 -6 -12 -15 -12
-16 5 -10 10 4 27 15 36 25 10 9 28 16 41 15 20 -2 24 1 20 18 -4 17 -3 18 6
6 9 -13 11 -12 11 3 0 10 5 15 10 12 6 -3 10 0 10 8 0 8 7 18 16 21 15 6 15 4
3 -11 -13 -16 -12 -17 4 -4 9 7 17 19 17 27 0 7 4 16 10 19 6 4 7 -1 4 -12 -5
-17 -5 -17 9 -1 8 10 18 14 23 10 4 -4 2 2 -6 12 -14 18 -13 19 4 13 14 -6 17
-4 12 9 -6 15 -4 15 11 3 12 -10 15 -10 9 -1 -10 16 13 45 29 38 8 -3 11 2 8
14 -3 10 1 21 8 25 7 5 10 4 6 -2 -3 -5 0 -10 7 -10 8 0 12 7 8 15 -3 10 -1
13 6 8 6 -3 14 -1 18 5 4 8 3 9 -4 5 -19 -12 -14 5 14 41 14 19 30 30 36 27 8
-5 9 -1 5 10 -5 13 -1 19 13 23 17 5 18 8 8 21 -11 13 -10 14 12 7 22 -7 23
-6 12 8 -14 16 0 33 18 22 6 -3 7 1 4 10 -4 9 1 22 12 31 11 9 12 12 4 8 -9
-4 -7 2 5 13 11 11 25 18 30 15 6 -3 4 1 -3 10 -10 12 -10 18 2 27 11 9 15 9
20 -1 3 -7 3 0 1 15 -2 18 1 30 11 34 7 3 11 10 7 16 -4 7 0 8 13 3 15 -6 16
-4 7 5 -9 9 -7 16 10 31 12 11 16 17 9 13 -21 -11 15 67 41 88 12 10 16 16 10
12 -7 -3 -13 -2 -13 3 0 15 13 22 24 13 7 -6 12 -1 13 16 1 19 -1 22 -8 12
-15 -23 -10 -4 8 32 9 19 24 39 32 46 12 9 12 12 3 13 -7 0 -10 5 -7 10 4 6
11 8 16 5 5 -3 6 2 2 11 -4 11 -3 15 5 10 7 -4 10 1 7 14 -2 11 1 20 6 20 6 0
7 5 3 12 -5 7 -3 8 6 3 10 -6 12 -4 7 8 -3 9 3 26 14 39 11 13 17 16 13 8 -5
-8 -9 -31 -10 -50 -1 -19 -2 -35 -4 -35 -3 0 -10 -100 -13 -195 -3 -66 -7 -84
-18 -82 -10 3 -9 -2 4 -16 9 -10 15 -21 12 -24 -11 -11 -13 -48 -3 -54 6 -4 5
-10 -3 -15 -10 -6 -11 -9 -1 -9 6 0 12 -5 12 -11 0 -5 -6 -7 -12 -3 -10 6 -10
4 0 -8 7 -9 13 -36 15 -61 1 -25 5 -43 10 -40 4 2 7 -2 7 -11 0 -8 -6 -17 -12
-19 -8 -3 -6 -6 5 -6 9 -1 17 -6 17 -12 0 -5 -6 -7 -12 -3 -7 4 -6 -1 3 -12 9
-10 20 -26 24 -34 8 -13 7 -13 -11 0 -19 14 -19 14 -1 -7 11 -12 16 -27 11
-34 -4 -7 -3 -10 3 -6 13 8 26 -20 16 -35 -3 -6 -2 -9 3 -6 5 3 18 -6 28 -20
11 -14 14 -22 8 -18 -8 5 -10 2 -6 -9 4 -9 9 -13 12 -10 3 2 12 -4 20 -16 8
-11 11 -23 8 -26 -8 -9 32 -35 43 -29 5 4 7 -3 4 -14 -3 -12 0 -20 6 -20 7 0
9 5 5 11 -4 7 7 1 25 -12 36 -26 40 -35 10 -18 -12 6 -19 7 -15 1 3 -5 19 -15
36 -22 16 -7 30 -16 30 -20 0 -10 20 -8 39 4 11 7 13 5 8 -8 -4 -11 -3 -15 4
-11 6 4 19 -1 29 -10 18 -16 21 -16 44 -2 23 15 24 15 18 -6 -5 -21 -4 -21 17
3 12 14 20 20 17 15 -2 -6 4 -16 14 -23 17 -10 18 -9 13 6 -5 14 -3 15 8 5 14
-14 33 -18 25 -5 -2 4 11 6 31 4 28 -4 34 -2 28 9 -5 8 -4 11 1 6 5 -5 9 -13
9 -18 0 -5 5 -9 10 -9 6 0 10 4 10 9 0 5 3 13 7 17 5 4 8 2 8 -5 0 -8 5 -9 19
-2 10 6 22 7 26 3 3 -4 6 -2 5 3 -5 21 1 30 9 16 6 -10 13 -11 27 -3 11 6 18
13 16 17 -1 3 4 13 13 21 18 18 20 4 3 -16 -7 -8 -3 -6 9 4 13 10 20 24 16 30
-4 6 1 5 10 -3 10 -8 20 -11 24 -7 3 3 1 6 -5 6 -7 0 -12 5 -12 11 0 7 10 9
25 7 18 -4 23 -2 16 6 -7 8 -3 16 11 25 16 10 19 10 13 -1 -5 -7 1 -4 12 7 11
11 16 23 11 26 -5 3 -3 9 6 12 9 4 16 1 17 -6 0 -7 4 -2 10 11 5 13 13 21 19
17 6 -4 7 1 3 11 -4 12 -3 15 5 10 7 -4 12 -1 12 8 0 9 5 16 11 16 5 0 7 -5 3
-12 -5 -7 -3 -8 5 -4 7 5 10 10 7 13 -10 10 15 44 26 37 6 -4 8 -3 4 4 -3 6
10 27 29 48 19 20 35 40 35 45 0 4 10 15 22 23 12 9 19 16 15 16 -4 0 2 9 13
20 12 12 18 25 15 29 -7 12 22 34 34 27 5 -3 8 5 6 19 -2 19 1 23 10 15 10 -8
13 -6 11 7 0 11 5 17 13 15 12 -3 12 -1 0 14 -13 16 -12 17 6 10 11 -4 16 -4
12 0 -4 4 -1 14 6 22 10 13 9 14 -2 8 -9 -6 -8 0 4 17 9 14 22 25 28 23 7 -1
9 -1 5 1 -12 7 -9 33 3 33 5 0 7 -5 3 -12 -4 -7 -3 -8 5 -4 8 5 9 12 2 19 -13
16 13 52 31 41 7 -4 10 -4 6 1 -4 4 -2 15 5 23 9 13 9 14 0 8 -9 -5 -11 -2 -7
8 3 9 10 14 14 11 5 -3 11 -1 15 5 3 5 1 10 -5 10 -6 0 -8 5 -5 10 4 6 11 8
16 5 5 -3 6 2 2 11 -4 11 -3 15 5 10 7 -4 10 0 7 12 -4 24 20 56 37 47 10 -6
10 -5 1 5 -10 11 -8 22 10 54 12 23 25 42 29 44 4 2 5 9 2 16 -3 7 2 19 10 26
9 7 13 16 10 21 -3 5 3 9 13 9 15 0 16 2 3 10 -11 7 -11 10 -2 10 8 0 10 5 6
12 -5 8 -2 9 9 5 10 -3 17 -2 17 3 0 6 -5 10 -12 10 -6 0 -3 7 8 16 10 8 13
13 6 9 -6 -3 -12 -1 -12 4 0 6 6 11 14 11 8 0 13 8 11 18 -1 9 2 26 8 37 6 11
10 24 9 28 -1 5 2 6 7 3 5 -4 12 -2 16 4 3 5 0 10 -7 10 -8 1 -6 6 6 15 10 8
23 12 29 8 6 -3 7 -1 3 6 -4 6 -12 9 -17 6 -5 -4 -9 -1 -9 4 0 6 5 11 11 11 5
0 7 5 4 10 -3 6 -2 10 4 10 6 0 7 7 4 17 -4 10 -2 14 4 10 6 -4 14 0 17 9 3 8
2 13 -3 9 -11 -6 -9 14 2 33 5 7 12 10 17 7 4 -3 7 3 6 12 -2 10 4 24 13 31
14 11 14 11 -4 6 -17 -5 -16 -3 5 16 14 12 19 18 11 14 -10 -5 -12 -3 -5 7 4
8 10 23 11 34 2 10 9 22 15 27 7 4 10 10 6 13 -11 11 13 66 25 58 8 -4 8 -1 0
9 -7 8 -9 18 -5 22 4 4 8 12 8 17 3 22 5 23 13 10 6 -10 8 -2 6 22 -2 21 0 35
5 32 4 -3 11 2 14 11 3 8 2 12 -4 9 -6 -3 -7 1 -4 9 3 9 11 13 18 9 6 -4 6 0
-2 9 -10 13 -10 18 -1 24 8 5 9 3 4 -6 -6 -9 -4 -11 4 -5 9 5 10 10 2 18 -7 7
-5 14 7 23 12 10 13 13 3 14 -10 0 -11 4 -3 13 6 6 12 17 14 22 1 6 7 9 13 7
5 -2 4 2 -2 9 -14 15 -18 33 -5 25 5 -3 9 1 9 9 0 8 -5 11 -11 8 -6 -3 -5 0 2
8 6 7 12 26 12 42 0 19 4 26 12 21 7 -5 8 -3 2 7 -5 8 -7 23 -6 34 1 11 -5 3
-14 -17 -9 -21 -21 -35 -27 -31 -6 3 -7 1 -3 -6 4 -7 0 -29 -10 -49 -10 -20
-19 -43 -20 -51 -2 -8 -6 -17 -11 -20 -4 -3 -9 -13 -11 -21 -9 -40 -45 -109
-55 -103 -6 3 -7 1 -3 -6 4 -6 2 -18 -4 -26 -7 -8 -9 -15 -5 -15 5 0 1 -8 -8
-18 -10 -10 -14 -22 -10 -25 3 -4 0 -7 -7 -7 -7 0 -10 -3 -7 -6 3 -4 -7 -32
-23 -63 -17 -31 -30 -62 -30 -69 0 -8 -5 -10 -12 -6 -7 4 -10 3 -5 -1 4 -5 0
-19 -8 -32 -9 -13 -13 -23 -10 -23 3 0 -5 -17 -18 -37 -13 -21 -38 -68 -56
-105 -19 -39 -38 -65 -44 -61 -6 3 -7 1 -3 -5 9 -15 -34 -93 -47 -85 -6 3 -7
1 -3 -5 9 -15 -98 -194 -110 -184 -5 4 -6 3 -2 -2 8 -10 -21 -66 -34 -66 -4 0
-8 -6 -8 -12 0 -7 -10 -25 -23 -40 -12 -14 -33 -41 -47 -58 -116 -147 -194
-194 -243 -147 -26 26 -30 38 -31 95 0 23 -3 42 -6 42 -4 0 -7 7 -7 15 0 8 4
12 8 9 4 -2 7 5 6 16 -1 11 -5 20 -10 20 -5 0 -5 6 1 13 5 6 8 22 6 35 -3 17
0 21 8 16 10 -6 10 -5 1 8 -7 8 -11 17 -8 19 2 3 5 23 6 44 1 22 7 46 12 53 6
8 5 12 -2 12 -7 0 -9 5 -4 12 4 7 8 29 10 48 2 41 10 76 17 89 4 5 0 12 -6 14
-10 4 -10 6 -1 6 7 1 10 8 6 18 -4 10 -2 14 4 10 6 -4 9 3 7 18 -1 14 2 25 7
25 4 0 6 7 3 15 -4 9 0 15 7 15 11 0 11 3 -1 10 -13 9 -13 12 3 21 14 8 15 14
7 24 -6 8 -7 16 -2 19 5 3 8 19 7 36 -2 22 2 30 14 31 10 0 11 2 4 6 -17 6
-16 28 1 43 8 6 12 18 9 26 -3 8 1 21 8 30 10 13 10 17 0 24 -9 5 -10 9 -2 14
6 4 9 11 6 16 -3 4 2 11 11 14 13 5 14 9 4 21 -8 10 -9 15 -2 15 6 0 11 10 10
23 -2 39 14 87 26 80 6 -4 4 2 -4 12 -12 15 -12 17 -1 10 11 -6 13 -4 8 8 -4
10 0 17 11 20 16 4 16 5 0 6 -11 1 -15 6 -12 16 4 8 11 12 18 8 6 -4 4 2 -4
12 -8 10 -10 16 -3 12 6 -4 14 -3 18 3 3 5 2 10 -4 10 -6 0 -8 7 -5 15 4 8 11
12 18 8 6 -4 5 1 -3 11 -12 14 -12 19 -1 29 10 10 11 9 5 -3 -5 -8 -4 -11 0
-7 13 11 15 37 4 37 -6 0 -7 5 -4 10 4 6 12 7 18 3 7 -4 6 0 -2 10 -9 11 -10
17 -2 17 6 0 10 3 10 8 -5 27 2 52 13 46 7 -4 8 -3 4 5 -4 6 -2 19 6 28 11 14
11 16 -2 8 -9 -5 -7 1 5 15 11 13 14 20 6 15 -9 -5 -12 -3 -9 6 3 8 11 13 18
11 11 -3 11 0 0 12 -11 15 -7 20 13 17 4 -1 3 8 -4 20 -10 19 -9 21 6 15 15
-5 16 -4 5 9 -8 10 -9 15 -2 15 7 0 9 7 5 17 -4 10 -2 14 5 9 6 -3 14 -1 18 5
4 8 3 9 -4 5 -7 -4 -12 -1 -12 8 0 9 4 16 9 16 5 0 7 10 3 22 -3 14 -1 19 6
14 7 -4 9 1 7 16 -3 13 4 32 18 47 16 19 17 22 3 11 -18 -14 -19 -14 -8 6 6
12 8 25 4 29 -4 5 -1 4 7 0 11 -6 13 -4 7 10 -4 11 -2 22 6 26 13 8 14 11 16
62 2 18 8 27 20 28 10 0 12 3 5 6 -7 2 -13 9 -13 15 0 6 7 7 16 4 14 -5 15 -4
4 9 -10 13 -10 19 4 33 9 10 13 22 10 25 -4 4 -1 14 7 24 12 15 12 16 -1 8
-13 -8 -13 -7 -1 8 7 9 10 17 5 17 -5 0 -1 5 9 11 9 5 17 15 17 22 0 7 -4 6
-10 -3 -6 -9 -10 -10 -10 -3 0 6 5 15 10 18 6 3 10 15 10 26 0 11 4 18 9 15 5
-4 8 5 7 18 -2 15 3 27 12 31 11 4 12 8 3 19 -7 8 -8 15 -2 18 5 1 12 20 16
40 7 35 5 38 -41 71 -62 46 -168 71 -294 71 -306 0 -491 -82 -568 -254 -9 -19
-17 -38 -18 -42 -1 -5 -3 -10 -4 -13 -1 -3 -4 -9 -5 -15 -1 -5 -4 -13 -5 -17
-1 -5 -2 -11 -1 -15 0 -5 -3 -8 -9 -8 -5 0 -7 -8 -3 -17 3 -10 -16 5 -43 33
-71 73 -227 199 -238 192 -2 -2 -12 5 -22 14 -25 22 -146 81 -209 101 -152 50
-321 56 -421 14 -34 -13 -79 -36 -100 -51 -42 -28 -164 -143 -164 -154 0 -4
-10 -18 -23 -32 -28 -31 -117 -166 -117 -178 0 -4 -10 -19 -22 -32 -13 -14
-23 -27 -22 -30 2 -11 -29 -75 -40 -82 -6 -4 -8 -8 -4 -8 4 0 2 -13 -3 -30 -6
-17 -16 -27 -22 -23 -6 3 -7 1 -3 -5 4 -6 1 -22 -6 -34 -7 -13 -12 -26 -13
-30 0 -3 -3 -10 -7 -14 -5 -4 -8 -16 -8 -26 0 -12 -4 -16 -12 -12 -6 4 -8 3
-5 -3 8 -13 -14 -83 -25 -83 -5 0 -7 -4 -4 -9 5 -8 -23 -100 -34 -111 -3 -3
-6 -17 -8 -31 -3 -24 0 -26 38 -27 23 -1 47 -5 52 -9 6 -3 8 -1 5 4 -4 6 1 14
10 17 9 4 20 1 25 -6 7 -12 12 -4 9 15 -2 13 17 8 22 -6 6 -15 -89 -51 -106
-40 -6 3 -7 2 -4 -4 4 -6 -11 -17 -32 -25 -36 -14 -39 -14 -36 1 2 9 4 19 4
23 1 4 9 4 19 1 16 -6 16 -6 0 10 -22 22 -24 22 -126 -12 -155 -51 -333 -132
-508 -233 -56 -32 -105 -58 -108 -58 -3 0 -6 9 -6 19 0 11 -4 22 -10 26 -5 3
-7 12 -3 20 3 8 0 15 -6 15 -6 0 -8 7 -5 15 4 8 2 21 -3 28 -15 20 -45 131
-47 175 -1 12 -4 22 -7 22 -7 0 -22 62 -23 95 -1 11 -4 22 -8 25 -4 3 -8 30
-10 60 -2 30 -7 58 -12 62 -6 4 -4 14 5 24 9 11 9 15 2 10 -10 -5 -13 6 -15
46 -4 144 -2 188 7 188 6 0 6 3 0 8 -6 4 -10 13 -9 20 1 6 2 17 3 23 0 5 7 7
14 3 9 -6 9 -4 -1 8 -14 18 -5 51 12 41 6 -4 5 1 -3 11 -8 9 -10 16 -5 15 19
-3 28 2 16 10 -10 6 -9 11 4 22 12 9 15 10 10 2 -4 -7 -2 -13 3 -13 6 0 11 10
11 23 0 18 2 19 10 7 8 -13 10 -13 10 1 0 26 24 41 40 26 10 -10 11 -9 5 2 -5
9 -3 12 6 9 8 -3 22 -1 32 4 11 5 33 11 50 13 18 2 26 1 20 -2 -21 -8 -15 -25
6 -18 11 3 22 1 26 -5 3 -6 12 -7 18 -4 8 5 8 3 0 -7 -7 -7 -13 -18 -13 -23 0
-6 5 -4 11 4 8 11 12 12 16 2 2 -6 9 -10 14 -6 5 3 8 2 7 -3 -1 -4 4 -19 11
-32 8 -14 9 -21 2 -17 -6 4 -11 3 -11 -2 0 -6 6 -12 13 -15 8 -3 13 -16 12
-29 -1 -12 3 -26 9 -30 8 -6 6 -11 -4 -18 -9 -5 -10 -10 -3 -10 13 0 12 -18
-1 -39 -6 -9 -5 -12 2 -7 7 4 8 -3 2 -24 -5 -16 -6 -30 -3 -30 3 0 0 -6 -6
-13 -6 -8 -8 -17 -4 -20 3 -4 0 -13 -7 -22 -7 -8 -10 -15 -6 -15 3 0 1 -11 -4
-25 -6 -17 -6 -25 1 -25 6 0 8 -3 5 -8 -2 -4 9 -8 26 -9 20 0 26 2 17 7 -7 5
-17 6 -23 3 -5 -3 -6 -1 -2 6 4 6 12 9 17 5 6 -3 17 2 25 12 9 11 13 14 10 8
-3 -6 1 -11 9 -11 8 0 12 4 10 8 -9 13 7 40 20 35 9 -3 11 2 7 16 -4 18 -2 20
14 14 15 -6 17 -5 6 6 -10 10 -8 15 10 26 13 7 15 11 6 8 -12 -3 -15 -1 -11
10 3 7 10 14 15 14 6 0 7 7 4 16 -5 12 -2 15 10 10 13 -5 14 -4 6 7 -8 10 -7
20 3 40 8 15 10 27 5 27 -4 0 -6 9 -3 20 3 11 10 17 15 14 6 -4 6 2 -1 13 -6
11 -8 23 -5 26 11 10 7 113 -5 135 -7 13 -10 30 -7 38 3 8 1 14 -5 14 -6 0 -8
4 -4 9 3 5 0 13 -6 16 -5 4 -8 14 -4 23 3 9 3 13 -1 10 -4 -4 -21 12 -39 35
-53 69 -128 119 -236 157 -79 28 -261 35 -354 15z m305 -341 c0 -8 -19 -13
-24 -6 -3 5 1 9 9 9 8 0 15 -2 15 -3z m1919 -92 c1 17 24 19 38 3 4 -4 2 -5
-6 0 -10 5 -12 4 -7 -3 5 -9 13 -9 29 0 19 10 21 9 9 -4 -10 -13 -10 -18 -1
-24 8 -4 9 -3 5 4 -10 17 3 15 21 -3 8 -8 20 -12 26 -8 7 4 6 -1 -2 -10 -12
-15 -12 -17 3 -11 11 4 24 -2 37 -17 12 -13 25 -23 31 -21 5 1 4 -8 -3 -20 -6
-13 -8 -20 -4 -16 11 11 36 -12 28 -25 -4 -6 -1 -7 6 -3 9 6 8 13 -6 29 l-18
22 23 -19 c12 -11 20 -21 17 -24 -2 -2 6 -13 18 -23 12 -10 18 -18 13 -19 -5
0 -3 -7 4 -15 10 -12 9 -16 -4 -21 -12 -5 -14 -10 -6 -19 8 -9 8 -15 0 -20 -5
-3 -10 -15 -10 -26 0 -10 -3 -19 -7 -19 -5 0 -9 -12 -10 -26 0 -15 -5 -29 -10
-33 -4 -3 -9 -17 -11 -31 -1 -13 -6 -27 -10 -30 -4 -3 -8 -12 -9 -20 -3 -29
-12 -59 -22 -78 -6 -11 -7 -22 -4 -26 3 -3 1 -6 -5 -6 -7 0 -11 -3 -11 -7 4
-22 -2 -43 -10 -39 -5 4 -7 -3 -4 -14 3 -11 0 -20 -6 -20 -5 0 -8 -7 -5 -15 4
-8 1 -15 -5 -15 -6 0 -8 -7 -5 -15 4 -8 1 -15 -6 -15 -6 0 -9 -4 -5 -10 3 -5
-2 -26 -11 -47 -21 -46 -21 -47 -23 -74 0 -11 -4 -18 -8 -16 -5 3 -9 -7 -10
-21 0 -15 -6 -28 -12 -30 -5 -2 -7 -10 -4 -18 3 -8 0 -14 -7 -14 -6 0 -9 -4
-6 -9 7 -11 -29 -93 -37 -85 -3 3 -3 -3 0 -15 3 -13 1 -21 -6 -21 -7 0 -9 -4
-6 -10 3 -5 0 -20 -7 -32 -6 -13 -13 -27 -15 -33 -7 -30 -36 -101 -44 -110 -5
-5 -9 -15 -9 -22 0 -7 -11 -37 -25 -67 -14 -30 -25 -60 -25 -66 0 -6 -5 -8
-12 -4 -7 4 -8 3 -4 -4 4 -7 4 -18 -1 -24 -4 -7 -8 -15 -8 -18 -1 -18 -49
-120 -57 -120 -5 0 -6 -4 -3 -10 3 -5 2 -10 -4 -10 -6 0 -8 -7 -5 -15 4 -8 1
-15 -5 -15 -6 0 -10 -3 -10 -7 3 -21 -2 -33 -13 -27 -6 4 -8 3 -5 -3 7 -12
-14 -63 -26 -63 -5 0 -5 -5 -2 -10 3 -6 -1 -13 -9 -16 -9 -3 -14 -10 -11 -14
3 -4 -6 -24 -20 -44 -14 -20 -25 -41 -25 -47 0 -5 -7 -12 -15 -15 -8 -4 -13
-9 -10 -13 6 -11 -73 -99 -104 -114 -33 -16 -86 -3 -77 20 3 8 2 12 -3 9 -11
-7 -19 12 -16 42 1 12 -3 22 -8 22 -5 0 -4 7 3 15 10 12 10 15 0 15 -9 0 -9 4
1 17 8 10 9 14 2 10 -15 -9 -14 35 2 45 6 5 4 8 -5 8 -13 0 -13 1 0 10 12 8
12 10 1 10 -11 0 -11 3 0 16 10 13 10 17 -2 25 -8 5 -9 9 -2 9 6 0 10 8 9 18
-2 9 2 20 8 24 8 5 7 8 -2 8 -9 0 -10 5 -4 18 5 9 8 27 6 40 -2 13 0 21 4 18
5 -3 8 11 7 30 -2 23 3 38 14 44 14 8 14 9 -1 10 -11 0 -15 5 -12 15 4 8 11
12 18 8 6 -4 5 1 -3 10 -11 14 -11 17 0 17 12 0 12 2 0 9 -9 6 -10 11 -2 15 6
4 9 11 6 16 -3 5 3 14 12 20 17 11 17 11 1 6 -10 -3 -18 -1 -18 4 0 6 5 10 11
10 5 0 7 4 4 10 -3 5 -1 19 6 31 7 15 8 19 0 15 -13 -8 -4 21 13 43 8 11 8 13
-1 7 -15 -8 -16 -5 -7 18 3 9 11 13 18 9 6 -4 5 1 -3 10 -12 15 -12 22 -1 42
7 13 10 31 6 40 -5 13 -2 16 10 11 13 -5 14 -3 7 6 -8 11 -10 32 -4 41 3 2 12
55 13 75 1 6 5 12 9 12 4 0 5 10 2 23 -3 16 -2 18 5 8 7 -10 9 -4 7 20 -3 42
4 61 19 52 7 -5 7 -2 -1 8 -10 12 -9 20 4 39 9 13 12 21 6 17 -5 -3 -10 0 -10
8 0 8 5 11 10 8 6 -4 8 0 4 10 -3 9 0 18 9 21 8 3 14 11 13 18 0 10 -2 10 -6
1 -2 -7 -9 -13 -14 -13 -5 0 0 18 12 41 11 23 16 38 10 34 -6 -3 -11 -1 -11 4
0 6 5 11 11 11 5 0 7 5 4 10 -3 6 2 10 12 11 10 0 13 3 6 5 -13 6 -7 57 8 62
5 2 9 8 9 13 0 6 -6 7 -12 3 -9 -5 -9 -2 1 9 7 9 10 17 5 17 -5 0 -1 5 9 11 9
5 17 15 17 22 0 7 -4 6 -10 -3 -6 -9 -10 -10 -10 -3 0 6 5 15 10 18 6 3 10 15
10 26 0 14 4 18 13 13 7 -5 6 0 -3 11 -9 11 -10 16 -2 11 7 -4 12 -2 12 4 0 6
5 8 12 4 7 -4 8 -3 4 5 -4 6 -12 9 -17 6 -5 -4 -9 -2 -9 4 0 5 5 11 10 13 6 2
12 14 15 27 2 12 10 30 17 39 11 13 11 15 -2 8 -8 -4 -6 0 4 8 15 12 16 16 5
16 -10 0 -11 2 -2 8 6 4 14 20 17 35 7 38 16 49 33 42 13 -4 13 -3 4 9 -9 11
-8 15 5 20 12 5 14 9 5 20 -9 10 -8 15 4 20 8 3 15 15 15 26 0 11 5 20 11 20
5 0 7 -5 3 -12 -4 -7 -3 -8 5 -4 9 6 9 12 -1 24 -7 10 -8 14 -4 10 5 -4 17 2
27 14 24 27 24 35 2 17 -16 -13 -17 -12 -4 4 7 9 21 17 30 17 12 0 13 2 3 9
-11 7 -10 10 3 15 9 3 21 4 26 1 5 -4 6 2 2 12 -6 15 -5 16 9 5 14 -11 16 -10
11 7 -3 13 -1 21 6 21 7 0 10 -4 7 -8 -3 -5 2 -9 10 -9 8 0 13 6 10 13 -4 10
1 11 19 4 21 -8 25 -6 26 8 1 11 4 8 9 -8 5 -15 8 -18 9 -8z m-999 -628 c0 -8
-19 -13 -24 -6 -3 5 1 9 9 9 8 0 15 -2 15 -3z m-1552 -1097 c0 -7 4 -23 8 -36
6 -19 4 -23 -7 -17 -8 4 -6 1 4 -7 20 -16 23 -32 5 -20 -8 4 -7 -2 2 -17 9
-14 16 -40 15 -57 0 -18 3 -33 8 -33 4 0 7 -5 7 -11 0 -5 -5 -7 -12 -3 -7 5
-8 3 -2 -7 4 -8 9 -35 10 -60 0 -25 3 -50 6 -55 6 -11 3 -62 -4 -69 -2 -3 -3
-25 -1 -50 3 -25 0 -45 -5 -45 -6 0 -8 -10 -4 -22 3 -11 1 -19 -4 -16 -5 3
-10 -10 -11 -30 -1 -20 -6 -45 -12 -57 -10 -21 -24 -57 -25 -65 -1 -3 -13 -26
-28 -51 -24 -40 -69 -83 -90 -84 -3 0 -9 -3 -13 -7 -9 -8 -67 1 -83 15 -20 16
-44 66 -37 77 3 6 2 10 -4 10 -6 0 -9 15 -7 34 1 19 -1 33 -6 30 -4 -3 -8 0
-8 5 0 6 6 11 13 11 8 0 8 3 1 8 -11 8 -17 95 -6 88 4 -2 6 16 5 40 0 24 3 42
7 39 5 -3 11 -1 15 5 3 5 1 10 -4 10 -6 0 -11 9 -11 20 0 11 5 20 10 20 6 0 9
3 9 8 -3 20 2 32 13 26 7 -4 8 -3 4 5 -10 16 2 63 14 56 6 -3 7 1 4 9 -3 9 -1
16 5 16 7 0 11 6 10 13 -3 16 22 67 32 67 5 0 6 6 3 13 -3 8 10 29 28 47 18
19 24 28 13 20 -17 -13 -16 -11 4 18 12 17 27 32 32 32 5 0 9 5 9 11 0 5 -5 7
-12 3 -7 -4 -8 -3 -4 5 6 9 11 9 21 1 11 -9 13 -6 10 15 -2 18 2 25 11 21 8
-3 11 0 7 10 -4 10 0 12 13 7 16 -6 17 -4 6 9 -10 13 -9 15 11 11 13 -3 24
-10 25 -16z m2797 -917 c3 -6 -1 -7 -9 -4 -18 7 -21 14 -7 14 6 0 13 -4 16
-10z m103 -33 c13 5 14 3 5 -7 -13 -14 -33 -5 -32 13 0 9 2 9 5 0 3 -7 13 -9
22 -6z m-3244 -193 c3 -8 2 -12 -4 -9 -6 3 -10 10 -10 16 0 14 7 11 14 -7z
m216 -38 c0 -3 -4 -8 -10 -11 -5 -3 -10 -1 -10 4 0 6 5 11 10 11 6 0 10 -2 10
-4z"/>
<path d="M3470 3600 c0 -5 5 -10 10 -10 6 0 10 5 10 10 0 6 -4 10 -10 10 -5 0
-10 -4 -10 -10z"/>
<path d="M2973 3475 c0 -8 4 -12 9 -9 5 3 6 10 3 15 -9 13 -12 11 -12 -6z"/>
<path d="M541 1886 c-9 -11 -9 -16 1 -22 7 -4 10 -4 6 1 -4 4 -3 14 3 22 6 7
9 13 6 13 -2 0 -10 -6 -16 -14z"/>
<path d="M506 1803 c-6 -14 -5 -15 5 -6 7 7 10 15 7 18 -3 3 -9 -2 -12 -12z"/>
<path d="M1356 3862 c-3 -5 1 -9 9 -9 8 0 12 4 9 9 -3 4 -7 8 -9 8 -2 0 -6 -4
-9 -8z"/>
<path d="M4655 2100 c-3 -6 1 -7 9 -4 18 7 21 14 7 14 -6 0 -13 -4 -16 -10z"/>
<path d="M3146 1952 c-3 -5 1 -9 9 -9 8 0 12 4 9 9 -3 4 -7 8 -9 8 -2 0 -6 -4
-9 -8z"/>
<path d="M4575 1940 c-3 -6 1 -7 9 -4 18 7 21 14 7 14 -6 0 -13 -4 -16 -10z"/>
<path d="M3076 1813 c-6 -14 -5 -15 5 -6 7 7 10 15 7 18 -3 3 -9 -2 -12 -12z"/>
<path d="M4490 1779 c0 -5 5 -7 10 -4 6 3 10 8 10 11 0 2 -4 4 -10 4 -5 0 -10
-5 -10 -11z"/>
<path d="M4346 1561 c-3 -5 2 -15 12 -22 15 -12 16 -12 5 2 -7 9 -10 19 -6 22
3 4 4 7 0 7 -3 0 -8 -4 -11 -9z"/>
<path d="M4250 1419 c0 -5 5 -7 10 -4 6 3 10 8 10 11 0 2 -4 4 -10 4 -5 0 -10
-5 -10 -11z"/>
<path d="M4227 1397 c-3 -8 1 -14 8 -14 7 0 11 6 8 14 -3 7 -6 13 -8 13 -2 0
-5 -6 -8 -13z"/>
<path d="M1048 1014 c-38 -20 -36 -28 2 -9 17 9 30 18 30 20 0 7 -1 6 -32 -11z"/>
</g>
</svg>
